{"title":"David Bowie-Madison Square Garden 1997 DVDRip XviD AC3 titler","uid":8957189,"size":1686002785,"categoryP":"video","categoryS":"movies","magnet":"?xt=urn:btih:3caee0ccde08cc24674619e074f58a38a255534f&amp;dn=David+Bowie-Madison+Square+Garden+1997+DVDRip+XviD+AC3+titler&amp;tr=udp%3A%2F%2Ftracker.openbittorrent.com%3A80&amp;tr=udp%3A%2F%2Fopen.demonii.com%3A1337&amp;tr=udp%3A%2F%2Ftracker.coppersurfer.tk%3A6969&amp;tr=udp%3A%2F%2Fexodus.desync.com%3A6969","seeders":1,"leechers":4,"uploader":"movieZ.freak","files":5,"time":1379984165,"description":"\nSOURCE: DVD9\n\nDavid Bowie - Madison Square Garden 1997 [50th Birthday Concert]\n\n\nREAD ME:\n------------ &lt;a href=&quot;\nhttp://www.davidbowie.com/news/bowie-1997-msg-birthday-show-release-unofficial-15756&quot; rel=&quot;nofollow&quot; target=&quot;_NEW&quot;&gt;\nhttp://www.davidbowie.com/news/bowie-1997-msg-birthday-show-release-unofficial-15756&lt;/a&gt;\n\n\nDVD / Covers:\n---------------- &lt;a href=&quot;\nhttp://someimage.com/pAj4&quot; rel=&quot;nofollow&quot; target=&quot;_NEW&quot;&gt;\nhttp://someimage.com/pAj4&lt;/a&gt;\n\n\nSCREENSHOTS:\n--------------- &lt;a href=&quot;\nhttp://someimage.com/5tFE&quot; rel=&quot;nofollow&quot; target=&quot;_NEW&quot;&gt;\nhttp://someimage.com/5tFE&lt;/a&gt;\n\n\n\nTRACKLIST:\n------------- &lt;a href=&quot;\nhttp://someimage.com/4fYbLUU&quot; rel=&quot;nofollow&quot; target=&quot;_NEW&quot;&gt;\nhttp://someimage.com/4fYbLUU&lt;/a&gt;\n\n\n\nDURATION: 2h 9mn\n\n\nINFO:\n------------\nAn excellent complete concert video of the now legendary Bowie's 50th Birthday concert on January 8, 1997. This took place in Madison Square Garden. NTSC format, PROFESSIONALLY FILMED IN HI-FI STEREO. Total running time is 130 minutes. Many special guests showed up and played for this event.\n\n\nNOTE:\n----------\nAudio and video are excellent for this unofficial release.\n\n\n\n******** Check the sample ********\n\nSample _ Hallo Spaceboy - with The Foofighters (full song)\n------------------------------------------------------------------\n\n\nTracklist:\n--------------------------------------------------\n01 - Intro/Little Wonder\n02 - The Hearts Filthy Lesson\n03 - Scary Monsters - with Frank Black\n04 - Fashion - with Frank Black\n05 - Telling Lies\n06 - Hallo Spaceboy - with The Foofighters\n07 - Seven Years In Tibet - with Dave Grohl\n08 - The Man Who Sold The World\n09 - The Last Thing You Should Do - with Robert Smith\n10 - Quicksand - with Robert Smith\n11 - Battle For Britain\n12 - The Voyeur Of Utter Destruction\n13 - I'm Afraid Of Americans - with Sonic Youth\n14 - Looking For Satellites\n15 - Under Pressure\n16 - Heroes\n17 - Queen Bitch - with Lou Reed\n18 - I'm Waiting For The Man - with Lou Reed\n19 - Dirty Boulevard - with Lou Reed\n20 - White Light White Heat - with Lou Reed\n21 - Moonage Daydream\n22 - Happy Birthday To Bowie\n23 - All The Young Dudes - with Billy Corgan\n24 - The Jean Genie - with Billy Corgan\n25 - Space Oddity\n26 - I Can't Read - dressing room recording\n27 - Repetition - dressing room recording\n-----------------------------------------------------------------\n\n\nGeneral\n------------\nFormat : AVI\nFormat/Info : Audio Video Interleave\nFile size : 1.47 GiB\nDuration : 2h 9mn\nOverall bit rate : 1629 Kbps\nWriting application : VirtualDubMod 1.5.4.1\nWriting library : VirtualDub build 32842\n\n\nVideo\n-----------\nFormat : MPEG-4 Visual\nFormat profile : Advanced Simple@L5\nFormat settings, BVOP : 1\nFormat settings, QPel : No\nFormat settings, GMC : No warppoints\nFormat settings, Matrix : Custom\nCodec ID : XVID\nCodec ID/Hint : XviD\nDuration : 2h 9mn\nBit rate : 1489 Kbps\nWidth : 528 pixels\nHeight : 400 pixels\nDisplay aspect ratio : 4:3\nFrame rate : 29.970 fps\nColor space : YUV\nChroma subsampling : 4:2:0\nBit depth : 8 bits\nScan type : Progressive\nCompression mode : Lossy\nBits/(Pixel*Frame) : 0.235\nStream size : 1.34 GiB (91%)\nWriting library : XviD 64\n\n\nAudio\n------------\nFormat : AC-3\nFormat/Info : Audio Coding 3\nMode extension : CM (complete main)\nFormat settings, Endianness : Big\nCodec ID : 2000\nDuration : 2h 9mn\nBit rate mode : Constant\nBit rate : 128 Kbps\nChannel(s) : 2 channels\nChannel positions : Front: L R\nSampling rate : 48.0 KHz\nBit depth : 16 bits\nCompression mode : Lossy\nStream size : 118 MiB (8%)\nAlignment : Aligned on interleaves\nInterleave, duration : 33 ms (1.00 video frame)\nInterleave, preload duration : 512 ms","torrent":{"xt":"urn:btih:3caee0ccde08cc24674619e074f58a38a255534f","amp;dn":"David+Bowie-Madison+Square+Garden+1997+DVDRip+XviD+AC3+titler","amp;tr":["udp%3A%2F%2Ftracker.openbittorrent.com%3A80","udp%3A%2F%2Fopen.demonii.com%3A1337","udp%3A%2F%2Ftracker.coppersurfer.tk%3A6969","udp%3A%2F%2Fexodus.desync.com%3A6969"],"infoHash":"3caee0ccde08cc24674619e074f58a38a255534f","infoHashBuffer":{"type":"Buffer","data":[60,174,224,204,222,8,204,36,103,70,25,224,116,245,138,56,162,85,83,79]},"announce":[],"urlList":[]}}